<svg width="100" height="30" viewBox="0 0 100 30" fill="none" xmlns="http://www.w3.org/2000/svg">
<g clip-path="url(#clip0_4_15)">
<path d="M26.252 5.04166H13.75L18.7508 9.87499V21.9583H31.2529V10.3704C31.2515 10.0534 31.1213 9.74964 30.8903 9.52457L26.252 5.04166Z" stroke="white" stroke-width="5.33333" stroke-linecap="round" stroke-linejoin="round"/>
<path d="M7.75 21.9583V10.3704C7.7513 10.0534 7.87405 9.74964 8.09179 9.52457L12.4643 5.04166L17.1786 9.87499V21.9583H7.75Z" stroke="white" stroke-width="5.33333" stroke-linecap="round" stroke-linejoin="round"/>
<path d="M42.405 17.915L41.88 16.4C41.36 16.4 40.835 16.32 40.305 16.16C40.195 16.8 40.14 17.26 40.14 17.54C40.14 18.51 40.29 19.235 40.59 19.715C39.99 20.165 39.365 20.39 38.715 20.39C38.065 20.39 37.6 20.205 37.32 19.835C37.04 19.455 36.9 18.895 36.9 18.155C36.9 17.405 37.215 15.29 37.845 11.81L37.05 10.205C38.17 9.485 39.2 9.125 40.14 9.125C40.86 9.125 41.415 9.275 41.805 9.575C42.555 9.275 43.23 9.125 43.83 9.125C44.75 9.125 45.48 9.435 46.02 10.055C46.56 10.675 46.83 11.42 46.83 12.29C46.83 12.94 46.665 13.57 46.335 14.18C46.005 14.78 45.52 15.27 44.88 15.65C45.22 16.62 45.6 17.455 46.02 18.155C46.45 18.855 46.875 19.32 47.295 19.55C47.085 19.77 46.76 19.96 46.32 20.12C45.89 20.29 45.5 20.375 45.15 20.375C44.47 20.375 43.925 20.205 43.515 19.865C43.105 19.515 42.735 18.865 42.405 17.915ZM40.965 14.525C41.765 14.525 42.385 14.32 42.825 13.91C43.275 13.5 43.5 13.06 43.5 12.59C43.5 12.12 43.37 11.745 43.11 11.465C42.85 11.185 42.48 11.045 42 11.045C41.74 11.045 41.48 11.08 41.22 11.15C40.9 13.06 40.7 14.18 40.62 14.51C40.69 14.52 40.805 14.525 40.965 14.525ZM58.176 19.715C57.576 20.165 56.986 20.39 56.406 20.39C55.826 20.39 55.366 20.24 55.026 19.94C54.686 19.64 54.516 19.19 54.516 18.59C54.516 18.42 54.521 18.29 54.531 18.2L54.381 18.155C53.391 19.635 52.061 20.375 50.391 20.375C48.781 20.375 47.976 19.525 47.976 17.825C47.976 17.255 48.056 16.5 48.216 15.56C48.376 14.61 48.511 13.81 48.621 13.16C48.741 12.5 48.821 12.05 48.861 11.81L48.066 10.205C48.696 9.845 49.241 9.575 49.701 9.395C50.171 9.215 50.641 9.125 51.111 9.125C51.581 9.125 51.896 9.25 52.056 9.5C52.226 9.74 52.311 10.03 52.311 10.37C52.311 10.71 52.141 11.8 51.801 13.64C51.471 15.48 51.306 16.555 51.306 16.865C51.306 17.655 51.576 18.05 52.116 18.05C52.516 18.05 52.971 17.795 53.481 17.285C53.991 16.775 54.406 16.075 54.726 15.185C54.516 14.575 54.411 13.945 54.411 13.295C54.411 12.135 54.696 11.15 55.266 10.34C55.846 9.53 56.661 9.125 57.711 9.125C58.291 9.125 58.756 9.22 59.106 9.41C59.016 9.95 58.841 10.93 58.581 12.35C58.011 15.36 57.726 17.09 57.726 17.54C57.726 18.51 57.876 19.235 58.176 19.715ZM65.6182 9.125C66.9382 9.125 67.9282 9.28 68.5882 9.59C69.2482 9.89 69.5782 10.375 69.5782 11.045C69.5782 11.705 69.3732 12.21 68.9632 12.56C68.5632 12.9 68.1032 13.07 67.5832 13.07C67.0632 13.07 66.5932 12.94 66.1732 12.68C65.7632 12.41 65.4782 12.055 65.3182 11.615C64.9482 11.615 64.5932 11.74 64.2532 11.99C63.9232 12.23 63.7132 12.545 63.6232 12.935C65.6032 13.415 67.0232 13.975 67.8832 14.615C68.7432 15.255 69.1732 16.075 69.1732 17.075C69.1732 18.075 68.7182 18.875 67.8082 19.475C66.9082 20.075 65.6882 20.375 64.1482 20.375C62.6182 20.375 61.5332 20.165 60.8932 19.745C60.2532 19.325 59.9332 18.77 59.9332 18.08C59.9332 17.39 60.1482 16.755 60.5782 16.175C60.7882 16.625 61.1882 17.03 61.7782 17.39C62.3782 17.75 62.9682 17.93 63.5482 17.93C64.6182 17.93 65.2982 17.59 65.5882 16.91C63.9282 16.69 62.6632 16.23 61.7932 15.53C60.9232 14.82 60.4882 13.965 60.4882 12.965C60.4882 12.295 60.6682 11.7 61.0282 11.18C61.3882 10.65 61.8482 10.245 62.4082 9.965C63.5082 9.405 64.5782 9.125 65.6182 9.125ZM79.1254 14.015L79.0804 17.63H79.4704C80.0304 16.44 80.5454 15.17 81.0154 13.82C81.4854 12.46 81.7204 11.425 81.7204 10.715C81.7204 10.435 81.6654 10.165 81.5554 9.905C82.3154 9.385 83.0154 9.125 83.6554 9.125C84.6554 9.125 85.1554 9.69 85.1554 10.82C85.1554 11.38 85.0004 12.09 84.6904 12.95C84.3904 13.8 83.9404 14.87 83.3404 16.16C82.7404 17.44 82.4204 18.13 82.3804 18.23L82.5904 19.055C81.7304 19.935 80.6554 20.375 79.3654 20.375C78.0754 20.375 77.2604 20.14 76.9204 19.67C76.0804 20.14 75.1804 20.375 74.2204 20.375C73.2604 20.375 72.5704 20.235 72.1504 19.955C71.7304 19.675 71.5204 19.205 71.5204 18.545L71.5354 15.785C71.5354 13.495 71.2554 11.88 70.6954 10.94C70.4354 10.51 70.1154 10.165 69.7354 9.905C70.4154 9.385 71.1954 9.125 72.0754 9.125C72.8754 9.125 73.4704 9.44 73.8604 10.07C74.2504 10.69 74.5054 11.435 74.6254 12.305C74.7254 13.095 74.7754 14.03 74.7754 15.11L74.7304 17.63H75.1204C75.6904 16.39 76.1704 14.92 76.5604 13.22C76.4604 12.26 76.2404 11.295 75.9004 10.325C76.2704 10.035 76.6154 9.83 76.9354 9.71C77.2554 9.58 77.6804 9.515 78.2104 9.515C79.3004 9.515 79.8454 10.02 79.8454 11.03C79.8454 11.63 79.6054 12.625 79.1254 14.015ZM92.514 18.065C92.514 17.645 92.584 16.955 92.724 15.995H89.334C89.204 16.745 89.139 17.26 89.139 17.54C89.139 18.51 89.289 19.235 89.589 19.715C88.989 20.165 88.364 20.39 87.714 20.39C87.064 20.39 86.599 20.205 86.319 19.835C86.039 19.455 85.899 18.895 85.899 18.155C85.899 17.405 86.214 15.29 86.844 11.81L86.049 10.205C87.179 9.475 88.209 9.11 89.139 9.11C89.909 9.11 90.294 9.58 90.294 10.52C90.294 10.8 90.084 12.03 89.664 14.21H93.024C93.064 13.96 93.209 13.16 93.459 11.81L92.664 10.205C93.794 9.475 94.824 9.11 95.754 9.11C96.524 9.11 96.909 9.58 96.909 10.52C96.909 10.83 96.714 11.985 96.324 13.985C95.944 15.975 95.754 17.16 95.754 17.54C95.754 18.51 95.904 19.235 96.204 19.715C95.604 20.165 94.979 20.39 94.329 20.39C93.679 20.39 93.214 20.205 92.934 19.835C92.654 19.455 92.514 18.865 92.514 18.065Z" fill="white"/>
</g>
<defs>
<clipPath id="clip0_4_15">
<rect width="100" height="30" fill="white"/>
</clipPath>
</defs>
</svg>
